<?xml version="1.0" encoding="utf-8" standalone="no"?>
<!DOCTYPE svg PUBLIC "-//W3C//DTD SVG 1.1//EN"
  "http://www.w3.org/Graphics/SVG/1.1/DTD/svg11.dtd">
<!-- Created with matplotlib (https://matplotlib.org/) -->
<svg height="26.01375pt" version="1.1" viewBox="0 0 88.2 26.01375" width="88.2pt" xmlns="http://www.w3.org/2000/svg" xmlns:xlink="http://www.w3.org/1999/xlink">
 <defs>
  <style type="text/css">
*{stroke-linecap:butt;stroke-linejoin:round;}
  </style>
 </defs>
 <g id="figure_1">
  <g id="patch_1">
   <path d="M 0 26.01375 
L 88.2 26.01375 
L 88.2 0 
L 0 0 
z
" style="fill:none;"/>
  </g>
  <g id="text_1">
   <!-- $\log_{2}10 \approx 3.322$ -->
   <defs>
    <path d="M 3.078125 0 
L 3.078125 3.515625 
Q 6.5 3.515625 8.6875 4.046875 
Q 10.890625 4.59375 10.890625 6.6875 
L 10.890625 59.1875 
Q 10.890625 61.859375 10.078125 63.0625 
Q 9.28125 64.265625 7.765625 64.53125 
Q 6.25 64.796875 3.078125 64.796875 
L 3.078125 68.3125 
L 17.921875 69.390625 
L 17.921875 6.6875 
Q 17.921875 4.59375 20.109375 4.046875 
Q 22.3125 3.515625 25.6875 3.515625 
L 25.6875 0 
z
" id="Cmr10-108"/>
    <path d="M 25 -1.125 
Q 19 -1.125 13.859375 1.921875 
Q 8.734375 4.984375 5.75 10.109375 
Q 2.78125 15.234375 2.78125 21.296875 
Q 2.78125 25.875 4.421875 30.125 
Q 6.0625 34.375 9.109375 37.71875 
Q 12.15625 41.0625 16.203125 42.9375 
Q 20.265625 44.828125 25 44.828125 
Q 31.15625 44.828125 36.203125 41.578125 
Q 41.265625 38.328125 44.1875 32.875 
Q 47.125 27.4375 47.125 21.296875 
Q 47.125 15.28125 44.140625 10.125 
Q 41.15625 4.984375 36.046875 1.921875 
Q 30.953125 -1.125 25 -1.125 
z
M 25 1.8125 
Q 33.015625 1.8125 35.6875 7.609375 
Q 38.375 13.421875 38.375 22.40625 
Q 38.375 27.4375 37.84375 30.734375 
Q 37.3125 34.03125 35.5 36.71875 
Q 34.375 38.375 32.640625 39.625 
Q 30.90625 40.875 28.96875 41.53125 
Q 27.046875 42.1875 25 42.1875 
Q 21.875 42.1875 19.0625 40.765625 
Q 16.265625 39.359375 14.40625 36.71875 
Q 12.546875 33.890625 12.03125 30.484375 
Q 11.53125 27.09375 11.53125 22.40625 
Q 11.53125 16.796875 12.5 12.328125 
Q 13.484375 7.859375 16.4375 4.828125 
Q 19.390625 1.8125 25 1.8125 
z
" id="Cmr10-111"/>
    <path d="M 2.78125 -7.8125 
Q 2.78125 -4.25 5.359375 -1.578125 
Q 7.953125 1.078125 11.53125 2.203125 
Q 9.515625 3.71875 8.46875 6 
Q 7.421875 8.296875 7.421875 10.890625 
Q 7.421875 15.578125 10.40625 19.1875 
Q 5.8125 23.6875 5.8125 29.5 
Q 5.8125 32.625 7.15625 35.359375 
Q 8.5 38.09375 10.890625 40.09375 
Q 13.28125 42.09375 16.203125 43.140625 
Q 19.140625 44.1875 22.21875 44.1875 
Q 28.171875 44.1875 32.90625 40.71875 
Q 34.96875 42.921875 37.765625 44.109375 
Q 40.578125 45.3125 43.609375 45.3125 
Q 45.75 45.3125 47.109375 43.765625 
Q 48.484375 42.234375 48.484375 40.09375 
Q 48.484375 38.875 47.546875 37.9375 
Q 46.625 37.015625 45.40625 37.015625 
Q 44.140625 37.015625 43.203125 37.9375 
Q 42.28125 38.875 42.28125 40.09375 
Q 42.28125 41.9375 43.5 42.671875 
Q 38.328125 42.671875 34.625 39.109375 
Q 36.421875 37.3125 37.515625 34.6875 
Q 38.625 32.078125 38.625 29.5 
Q 38.625 25.25 36.28125 21.84375 
Q 33.9375 18.453125 30.09375 16.578125 
Q 26.265625 14.703125 22.21875 14.703125 
Q 16.75 14.703125 12.203125 17.671875 
Q 10.796875 15.71875 10.796875 13.28125 
Q 10.796875 10.640625 12.53125 8.65625 
Q 14.265625 6.6875 16.890625 6.6875 
L 25.09375 6.6875 
Q 31.0625 6.6875 35.84375 5.609375 
Q 40.625 4.546875 43.875 1.3125 
Q 47.125 -1.90625 47.125 -7.8125 
Q 47.125 -12.203125 43.40625 -15.109375 
Q 39.703125 -18.015625 34.546875 -19.3125 
Q 29.390625 -20.609375 25 -20.609375 
Q 20.5625 -20.609375 15.375 -19.3125 
Q 10.203125 -18.015625 6.484375 -15.109375 
Q 2.78125 -12.203125 2.78125 -7.8125 
z
M 8.40625 -7.8125 
Q 8.40625 -11.1875 11.140625 -13.453125 
Q 13.875 -15.71875 17.71875 -16.8125 
Q 21.578125 -17.921875 25 -17.921875 
Q 28.375 -17.921875 32.21875 -16.8125 
Q 36.078125 -15.71875 38.78125 -13.453125 
Q 41.5 -11.1875 41.5 -7.8125 
Q 41.5 -2.59375 36.71875 -1.046875 
Q 31.9375 0.484375 25.09375 0.484375 
L 16.890625 0.484375 
Q 14.59375 0.484375 12.671875 -0.609375 
Q 10.75 -1.703125 9.578125 -3.6875 
Q 8.40625 -5.671875 8.40625 -7.8125 
z
M 22.21875 17.390625 
Q 30.71875 17.390625 30.71875 29.5 
Q 30.71875 34.71875 28.90625 38.109375 
Q 27.09375 41.5 22.21875 41.5 
Q 17.328125 41.5 15.515625 38.109375 
Q 13.71875 34.71875 13.71875 29.5 
Q 13.71875 26.171875 14.40625 23.484375 
Q 15.09375 20.796875 16.9375 19.09375 
Q 18.796875 17.390625 22.21875 17.390625 
z
" id="Cmr10-103"/>
    <path d="M 4.984375 0 
L 4.984375 2.6875 
Q 4.984375 2.9375 5.171875 3.21875 
L 20.703125 20.40625 
Q 24.21875 24.21875 26.40625 26.796875 
Q 28.609375 29.390625 30.75 32.765625 
Q 32.90625 36.140625 34.15625 39.625 
Q 35.40625 43.109375 35.40625 47.015625 
Q 35.40625 51.125 33.890625 54.859375 
Q 32.375 58.59375 29.375 60.84375 
Q 26.375 63.09375 22.125 63.09375 
Q 17.78125 63.09375 14.3125 60.46875 
Q 10.84375 57.859375 9.421875 53.71875 
Q 9.8125 53.8125 10.5 53.8125 
Q 12.75 53.8125 14.328125 52.296875 
Q 15.921875 50.78125 15.921875 48.390625 
Q 15.921875 46.09375 14.328125 44.5 
Q 12.75 42.921875 10.5 42.921875 
Q 8.15625 42.921875 6.5625 44.546875 
Q 4.984375 46.1875 4.984375 48.390625 
Q 4.984375 52.15625 6.390625 55.4375 
Q 7.8125 58.734375 10.46875 61.296875 
Q 13.140625 63.875 16.484375 65.234375 
Q 19.828125 66.609375 23.578125 66.609375 
Q 29.296875 66.609375 34.21875 64.1875 
Q 39.15625 61.765625 42.03125 57.34375 
Q 44.921875 52.9375 44.921875 47.015625 
Q 44.921875 42.671875 43.015625 38.765625 
Q 41.109375 34.859375 38.125 31.65625 
Q 35.15625 28.46875 30.515625 24.40625 
Q 25.875 20.359375 24.421875 19 
L 13.09375 8.109375 
L 22.703125 8.109375 
Q 29.78125 8.109375 34.546875 8.21875 
Q 39.3125 8.34375 39.59375 8.59375 
Q 40.765625 9.859375 42 17.828125 
L 44.921875 17.828125 
L 42.09375 0 
z
" id="Cmr10-50"/>
    <path d="M 9.28125 0 
L 9.28125 3.515625 
Q 21.78125 3.515625 21.78125 6.6875 
L 21.78125 59.1875 
Q 16.609375 56.6875 8.6875 56.6875 
L 8.6875 60.203125 
Q 20.953125 60.203125 27.203125 66.609375 
L 28.609375 66.609375 
Q 28.953125 66.609375 29.265625 66.328125 
Q 29.59375 66.0625 29.59375 65.71875 
L 29.59375 6.6875 
Q 29.59375 3.515625 42.09375 3.515625 
L 42.09375 0 
z
" id="Cmr10-49"/>
    <path d="M 25 -2.203125 
Q 12.75 -2.203125 8.328125 7.875 
Q 3.90625 17.96875 3.90625 31.890625 
Q 3.90625 40.578125 5.484375 48.234375 
Q 7.078125 55.90625 11.78125 61.25 
Q 16.5 66.609375 25 66.609375 
Q 31.59375 66.609375 35.78125 63.375 
Q 39.984375 60.15625 42.1875 55.046875 
Q 44.390625 49.953125 45.1875 44.109375 
Q 46 38.28125 46 31.890625 
Q 46 23.296875 44.40625 15.796875 
Q 42.828125 8.296875 38.1875 3.046875 
Q 33.546875 -2.203125 25 -2.203125 
z
M 25 0.390625 
Q 30.5625 0.390625 33.296875 6.09375 
Q 36.03125 11.8125 36.671875 18.75 
Q 37.3125 25.6875 37.3125 33.5 
Q 37.3125 41.015625 36.671875 47.359375 
Q 36.03125 53.71875 33.3125 58.859375 
Q 30.609375 64.015625 25 64.015625 
Q 19.34375 64.015625 16.609375 58.828125 
Q 13.875 53.65625 13.234375 47.328125 
Q 12.59375 41.015625 12.59375 33.5 
Q 12.59375 27.9375 12.859375 23 
Q 13.140625 18.0625 14.3125 12.8125 
Q 15.484375 7.5625 18.09375 3.96875 
Q 20.703125 0.390625 25 0.390625 
z
" id="Cmr10-48"/>
    <path d="M 6.984375 5.609375 
Q 5.90625 5.609375 5.609375 8.109375 
L 5.609375 8.6875 
Q 5.609375 13.234375 7.828125 16.984375 
Q 10.0625 20.75 13.921875 22.875 
Q 17.78125 25 22.21875 25 
Q 27.59375 25 33.28125 21.546875 
Q 38.96875 18.109375 44.578125 14.640625 
Q 50.203125 11.1875 55.515625 11.1875 
Q 60.640625 11.1875 64.953125 14.359375 
Q 69.28125 17.53125 69.28125 22.515625 
Q 69.578125 25 70.703125 25 
Q 71.828125 25 72.125 22.515625 
L 72.125 21.921875 
Q 72.125 17.390625 69.875 13.625 
Q 67.625 9.859375 63.796875 7.734375 
Q 59.96875 5.609375 55.515625 5.609375 
Q 51.3125 5.609375 47.625 7.34375 
Q 43.953125 9.078125 38.984375 12.421875 
Q 34.03125 15.765625 30.265625 17.578125 
Q 26.515625 19.390625 22.21875 19.390625 
Q 19.046875 19.390625 15.765625 17.96875 
Q 12.5 16.546875 10.453125 13.984375 
Q 8.40625 11.421875 8.40625 8.109375 
Q 8.109375 5.609375 6.984375 5.609375 
z
M 6.984375 28.90625 
Q 5.90625 28.90625 5.609375 31.390625 
L 5.609375 31.984375 
Q 5.609375 36.53125 7.828125 40.28125 
Q 10.0625 44.046875 13.921875 46.171875 
Q 17.78125 48.296875 22.21875 48.296875 
Q 27.59375 48.296875 33.28125 44.84375 
Q 38.96875 41.40625 44.578125 37.953125 
Q 50.203125 34.515625 55.515625 34.515625 
Q 60.640625 34.515625 64.953125 37.6875 
Q 69.28125 40.875 69.28125 45.796875 
Q 69.578125 48.296875 70.703125 48.296875 
Q 71.828125 48.296875 72.125 45.796875 
L 72.125 45.21875 
Q 72.125 40.671875 69.875 36.90625 
Q 67.625 33.15625 63.796875 31.03125 
Q 59.96875 28.90625 55.515625 28.90625 
Q 51.3125 28.90625 47.625 30.640625 
Q 43.953125 32.375 38.984375 35.71875 
Q 34.03125 39.0625 30.265625 40.859375 
Q 26.515625 42.671875 22.21875 42.671875 
Q 19.046875 42.671875 15.765625 41.25 
Q 12.5 39.84375 10.453125 37.28125 
Q 8.40625 34.71875 8.40625 31.390625 
Q 8.109375 28.90625 6.984375 28.90625 
z
" id="Cmsy10-188"/>
    <path d="M 9.515625 7.71875 
Q 11.859375 4.296875 15.8125 2.640625 
Q 19.78125 0.984375 24.3125 0.984375 
Q 30.125 0.984375 32.5625 5.9375 
Q 35.015625 10.890625 35.015625 17.1875 
Q 35.015625 20.015625 34.5 22.84375 
Q 33.984375 25.6875 32.765625 28.125 
Q 31.546875 30.5625 29.421875 32.03125 
Q 27.296875 33.5 24.21875 33.5 
L 17.578125 33.5 
Q 16.703125 33.5 16.703125 34.421875 
L 16.703125 35.296875 
Q 16.703125 36.078125 17.578125 36.078125 
L 23.09375 36.53125 
Q 26.609375 36.53125 28.921875 39.15625 
Q 31.25 41.796875 32.328125 45.578125 
Q 33.40625 49.359375 33.40625 52.78125 
Q 33.40625 57.5625 31.15625 60.640625 
Q 28.90625 63.71875 24.3125 63.71875 
Q 20.515625 63.71875 17.046875 62.28125 
Q 13.578125 60.84375 11.53125 57.90625 
Q 11.71875 57.953125 11.859375 57.984375 
Q 12.015625 58.015625 12.203125 58.015625 
Q 14.453125 58.015625 15.96875 56.453125 
Q 17.484375 54.890625 17.484375 52.6875 
Q 17.484375 50.53125 15.96875 48.96875 
Q 14.453125 47.40625 12.203125 47.40625 
Q 10.015625 47.40625 8.453125 48.96875 
Q 6.890625 50.53125 6.890625 52.6875 
Q 6.890625 56.984375 9.46875 60.15625 
Q 12.0625 63.328125 16.140625 64.96875 
Q 20.21875 66.609375 24.3125 66.609375 
Q 27.34375 66.609375 30.703125 65.703125 
Q 34.078125 64.796875 36.8125 63.109375 
Q 39.546875 61.421875 41.28125 58.78125 
Q 43.015625 56.15625 43.015625 52.78125 
Q 43.015625 48.578125 41.140625 45.015625 
Q 39.265625 41.453125 35.984375 38.859375 
Q 32.71875 36.28125 28.8125 35.015625 
Q 33.15625 34.1875 37.0625 31.734375 
Q 40.96875 29.296875 43.328125 25.484375 
Q 45.703125 21.6875 45.703125 17.28125 
Q 45.703125 11.765625 42.671875 7.296875 
Q 39.65625 2.828125 34.71875 0.3125 
Q 29.78125 -2.203125 24.3125 -2.203125 
Q 19.625 -2.203125 14.90625 -0.40625 
Q 10.203125 1.375 7.203125 4.9375 
Q 4.203125 8.5 4.203125 13.484375 
Q 4.203125 15.96875 5.859375 17.625 
Q 7.515625 19.28125 10.015625 19.28125 
Q 11.625 19.28125 12.96875 18.53125 
Q 14.3125 17.78125 15.0625 16.40625 
Q 15.828125 15.046875 15.828125 13.484375 
Q 15.828125 11.03125 14.109375 9.375 
Q 12.40625 7.71875 10.015625 7.71875 
z
" id="Cmr10-51"/>
    <path d="M 8.40625 5.515625 
Q 8.40625 7.765625 10.0625 9.375 
Q 11.71875 10.984375 13.921875 10.984375 
Q 15.28125 10.984375 16.59375 10.25 
Q 17.921875 9.515625 18.65625 8.203125 
Q 19.390625 6.890625 19.390625 5.515625 
Q 19.390625 3.328125 17.765625 1.65625 
Q 16.15625 0 13.921875 0 
Q 11.71875 0 10.0625 1.65625 
Q 8.40625 3.328125 8.40625 5.515625 
z
" id="Cmmi10-58"/>
   </defs>
   <g transform="translate(7.2 16.29375)scale(0.12 -0.12)">
    <use transform="translate(0 0.609375)" xlink:href="#Cmr10-108"/>
    <use transform="translate(27.685547 0.609375)" xlink:href="#Cmr10-111"/>
    <use transform="translate(77.685547 0.609375)" xlink:href="#Cmr10-103"/>
    <use transform="translate(132.149687 -16.396875)scale(0.7)" xlink:href="#Cmr10-50"/>
    <use transform="translate(173.527031 0.609375)" xlink:href="#Cmr10-49"/>
    <use transform="translate(223.527031 0.609375)" xlink:href="#Cmr10-48"/>
    <use transform="translate(291.085625 0.609375)" xlink:href="#Cmsy10-188"/>
    <use transform="translate(386.329766 0.609375)" xlink:href="#Cmr10-51"/>
    <use transform="translate(436.329766 0.609375)" xlink:href="#Cmmi10-58"/>
    <use transform="translate(464.015312 0.609375)" xlink:href="#Cmr10-51"/>
    <use transform="translate(514.015312 0.609375)" xlink:href="#Cmr10-50"/>
    <use transform="translate(564.015312 0.609375)" xlink:href="#Cmr10-50"/>
   </g>
  </g>
 </g>
</svg>
